<svg xmlns="http://www.w3.org/2000/svg" data-name="Artboard 30" viewBox="0 0 64 64" id="laundry-basket"><path fill="#e6d3b1" d="M50 23V15a1 1 0 011-1h2a1 1 0 011 1v8.508zM10 23.511V15a1 1 0 011-1h2a1 1 0 011 1v8zM12 27l2 30c.346 3.03 3.3 5 6.353 5H43.647c3.05 0 6.007-1.97 6.353-5l2-30z"></path><path fill="#dcc19c" d="M48.867,27,47,55c-.346,3.03-3.3,5-6.353,5H17.353a7.227,7.227,0,0,1-2.218-.351A6.8,6.8,0,0,0,20.353,62H43.647c3.05,0,6.007-1.97,6.353-5l2-30Z"></path><path fill="#936c42" d="M27,27H11.5A2.5,2.5,0,0,1,9,24.5H9A2.5,2.5,0,0,1,11.5,22h41A2.5,2.5,0,0,1,55,24.5h0A2.5,2.5,0,0,1,52.5,27H27Z"></path><path fill="#62c0db" d="M43.5,7a2.5,2.5,0,0,0,0-5H23a5,5,0,0,0,0,10H43.5a2.5,2.5,0,0,0,0-5Z"></path><path fill="#764a96" d="M43.5,17a2.5,2.5,0,0,0,0-5H23a5,5,0,0,0,0,10H43.5a2.5,2.5,0,0,0,0-5Z"></path><path fill="#49aad0" d="M43.5,7a2.489,2.489,0,0,0,1.989-1H22V8H45.489A2.489,2.489,0,0,0,43.5,7Z"></path><path fill="#57348c" d="M22,18H45.489A2.489,2.489,0,0,0,43.5,17a2.489,2.489,0,0,0,1.989-1H22Z"></path><rect width="4" height="6" x="41" y="51" fill="#936c42" rx="2"></rect><rect width="4" height="6" x="19" y="51" fill="#936c42" rx="2"></rect><rect width="4" height="6" x="30" y="51" fill="#936c42" rx="2"></rect><rect width="4" height="6" x="41" y="41" fill="#936c42" rx="2"></rect><rect width="4" height="6" x="19" y="41" fill="#936c42" rx="2"></rect><rect width="4" height="6" x="30" y="41" fill="#936c42" rx="2"></rect><rect width="4" height="6" x="19" y="31" fill="#936c42" rx="2"></rect><path d="M25,22V37a2,2,0,0,0,2,2H45a2,2,0,0,0,2-2V22Z" opacity=".05"></path><rect width="18" height="15" x="27" y="22" fill="#62c0db"></rect><rect width="18" height="4" x="27" y="29" fill="#d2e8ea"></rect><path fill="#fff" d="M34.513,17.667A20.46,20.46,0,0,0,27.227,2H23a5,5,0,0,0,0,10,5,5,0,0,0,0,10H11.5a2.5,2.5,0,0,0,0,5H12l.741,11.116c.419.026.834.064,1.259.064A20.513,20.513,0,0,0,34.513,17.667Z" opacity=".15"></path><rect width="3" height="2" x="11" y="23" fill="#fff" rx="1"></rect><rect width="8" height="2" x="15" y="23" fill="#fff" rx="1"></rect></svg>